HIERARCHY
ROOT Hips
{
  OFFSET 40.9192 92.6879 18.85
  CHANNELS 6 Xposition Yposition Zposition Zrotation Xrotation Yrotation
  JOINT LeftUpLeg
  {
    OFFSET 8.64259 1.95398 -2.38835
    CHANNELS 3 Zrotation Xrotation Yrotation
    JOINT LeftLeg
    {
      OFFSET 43.7702 0 0
      CHANNELS 3 Zrotation Xrotation Yrotation
      JOINT LeftFoot
      {
        OFFSET 40.6238 0 0
        CHANNELS 3 Zrotation Xrotation Yrotation
        JOINT LeftToeBase
        {
          OFFSET 12.7242 0 0
          CHANNELS 3 Zrotation Xrotation Yrotation
          End Site
          {
            OFFSET 0 0 0
          }
        }
      }
    }
  }
  JOINT RightUpLeg
  {
    OFFSET -8.2249 1.95398 -2.59336
    CHANNELS 3 Zrotation Xrotation Yrotation
    JOINT RightLeg
    {
      OFFSET 43.5653 0 0
      CHANNELS 3 Zrotation Xrotation Yrotation
      JOINT RightFoot
      {
        OFFSET 40.6238 0 0
        CHANNELS 3 Zrotation Xrotation Yrotation
        JOINT RightToeBase
        {
          OFFSET 12.7242 0 0
          CHANNELS 3 Zrotation Xrotation Yrotation
          End Site
          {
            OFFSET 0 0 0
          }
        }
      }
    }
  }
  JOINT Spine
  {
    OFFSET 0.165834 0.87714 6.61349
    CHANNELS 3 Zrotation Xrotation Yrotation
    JOINT Spine1
    {
      OFFSET 7.38963 1.71661e-005 0
      CHANNELS 3 Zrotation Xrotation Yrotation
      JOINT Spine2
      {
        OFFSET 11.9445 1.14441e-005 0
        CHANNELS 3 Zrotation Xrotation Yrotation
        JOINT Spine3
        {
          OFFSET 14.7254 4.19617e-005 0
          CHANNELS 3 Zrotation Xrotation Yrotation
          JOINT Spine4
          {
            OFFSET 10.9679 0 0
            CHANNELS 3 Zrotation Xrotation Yrotation
            JOINT RightShoulder
            {
              OFFSET 2.46616 -1.6653 3.69651
              CHANNELS 3 Zrotation Xrotation Yrotation
              JOINT RightArm
              {
                OFFSET 13.0012 0 0
                CHANNELS 3 Zrotation Xrotation Yrotation
                JOINT RightForeArm
                {
                  OFFSET 28.7848 1.52588e-005 0
                  CHANNELS 3 Zrotation Xrotation Yrotation
                  JOINT RightHand
                  {
                    OFFSET 26.5688 1.52588e-005 0
                    CHANNELS 3 Zrotation Xrotation Yrotation
                    End Site
                    {
                      OFFSET 0 0 0
                    }
                  }
                }
              }
            }
            JOINT LeftShoulder
            {
              OFFSET 2.38034 -1.29275 -3.7523
              CHANNELS 3 Zrotation Xrotation Yrotation
              JOINT LeftArm
              {
                OFFSET 16.3182 6.10351e-005 0
                CHANNELS 3 Zrotation Xrotation Yrotation
                JOINT LeftForeArm
                {
                  OFFSET 27.0901 0 0
                  CHANNELS 3 Zrotation Xrotation Yrotation
                  JOINT LeftHand
                  {
                    OFFSET 24.5451 1.52588e-005 0
                    CHANNELS 3 Zrotation Xrotation Yrotation
                    End Site
                    {
                      OFFSET 0 0 0
                    }
                  }
                }
              }
            }
            JOINT Neck
            {
              OFFSET 5.0226 -0.0266342 0
              CHANNELS 3 Zrotation Xrotation Yrotation
              JOINT Head
              {
                OFFSET 6.69363 2.86102e-005 0
                CHANNELS 3 Zrotation Xrotation Yrotation
                End Site
                {
                  OFFSET 0 0 0
                }
              }
            }
          }
        }
      }
    }
  }
}
MOTION
Frames:	15
Frame Time:	0.0416667
71.4551 96.7096 160.243 83.0449 -42.3641 88.2124 -167.626 28.2128 84.5915 -19.0204 5.28981 -9.95687 62.5402 0.663177 -1.52431 35.2599 5.01517 9.20064 171.617 -3.86507 91.7394 -38.8047 -26.1536 1.3178 44.1558 5.43218 4.87206 44.2163 0.872206 1.39911 2.46822 7.70379 -89.4304 11.4624 5.17698 0.609583 -0.198275 5.19878 0.380523 -22.8051 4.75392 2.14066 -2.79243 4.75393 2.14066 93.0296 -36.5792 -98.9457 22.035 -4.85512 -2.21635 -16.9506 -9.37509 -76.2131 -6.22301 -0.367854 -1.84023 -82.6627 -34.9266 88.1614 -50.3396 6.43417 53.2422 4.27032 38.0868 -19.2436 -17.2077 -0.976146 2.4273 -1.79175 -10.9548 6.58239 6.63441 -12.6488 -11.6679 
75.5125 96.4509 165.053 82.5631 -42 87.3552 -168.268 27.3088 83.376 -24.985 4.84389 -7.94667 68.4536 6.90639 0.870205 32.304 2.46849 5.86009 170.299 -0.795532 89.5971 -47.3581 -19.0298 1.21441 44.4092 4.6943 4.23391 41.4827 0.443487 -4.0961 2.19531 7.57945 -89.4055 11.7082 4.64528 0.697768 0.0455111 4.67151 0.492203 -22.5456 4.22049 2.06393 -2.53298 4.22049 2.06393 93.5056 -39.2697 -97.4724 22.7735 -4.93925 -1.83587 -17.1201 -9.54546 -75.4878 -5.88052 -0.255947 -3.79281 -84.6163 -38.1238 85.1447 -52.3297 5.87524 51.7874 3.70522 39.3041 -17.8452 -23.7946 -1.50343 3.08975 0.0475578 -10.2111 5.71264 5.9351 -11.6505 -9.71377 
78.888 96.3195 169.195 83.5887 -42.649 86.1916 -168.173 23.2191 82.4484 -26.5578 3.01523 -7.71279 72.6944 11.0544 1.85325 30.5586 1.17379 2.98287 170.633 5.14318 86.5509 -59.271 -11.9966 -0.323739 49.6977 2.30353 1.95949 38.063 0.344325 -7.04223 1.95683 7.75972 -89.2935 11.341 4.22327 0.983853 -0.32332 4.26243 0.796692 -22.9009 3.73212 2.20912 -2.88821 3.73211 2.20911 92.9973 -41.2498 -97.9301 24.2576 -4.35471 0.187209 -14.6386 -10.4717 -72.3016 -8.93763 -0.261248 -3.43408 -88.1465 -44.0398 80.3295 -52.7937 8.77125 45.6718 4.13577 39.3829 -19.5368 -25.9203 -1.66814 3.17216 1.5405 -9.44731 6.2082 6.63133 -11.0322 -9.28291 
82.1168 96.7982 172.764 84.0501 -43.128 86.1526 -168.891 18.8581 82.8015 -25.0228 1.76392 -7.26886 74.9568 13.2828 2.40699 29.3104 0.187811 2.4136 172.412 12.4665 86.7298 -66.4461 -6.41331 -1.40619 55.5217 -0.16519 -0.00162674 34.5657 0.406126 -8.48846 1.70537 7.84698 -89.3915 11.1696 3.67705 0.852074 -0.496288 3.71097 0.689194 -23.0636 3.25084 1.91877 -3.05091 3.25083 1.91876 93.1887 -42.2435 -97.3951 26.8395 -5.07771 2.68873 -12.5115 -10.8595 -68.3315 -12.9882 -0.370812 -2.40144 -89.075 -46.6849 79.4278 -50.1499 13.9855 36.1264 5.78235 39.5724 -23.2804 -20.9965 -1.39781 3.4924 1.43974 -8.36521 7.11876 8.5037 -10.1465 -8.63695 
85.7783 97.7093 176.185 83.0816 -40.3676 86.3987 -170.582 15.2408 83.3889 -21.7217 3.49743 -5.86877 73.9532 13.434 3.89021 30.88 1.4631 2.66214 172.966 19.3576 87.559 -67.6126 -1.67629 -1.07336 60.3854 -1.94369 -1.15835 33.7205 0.427419 -8.49707 1.16056 7.8177 -89.5665 11.2331 2.5115 0.616202 -0.435523 2.53617 0.504995 -22.9852 2.21015 1.34282 -2.9726 2.21016 1.34282 93.5762 -44.1759 -96.3583 28.6013 -5.37791 5.56259 -11.1893 -12.1825 -63.4026 -15.2529 -0.427302 -2.15451 -88.8584 -46.2171 79.6659 -46.3367 15.9997 26.6362 9.95687 34.4935 -29.8704 -5.59557 -0.379829 7.10907 2.22581 -7.17891 4.94955 8.98225 -8.36914 -5.27905 
89.2845 99.0575 179.36 84.4095 -37.5128 88.087 -172.462 9.40907 84.2528 -16.7173 6.73971 -4.32353 69.8739 11.4017 5.93278 33.8174 3.87655 3.04055 173.041 23.4518 87.8225 -63.8378 -1.4796 -0.751753 62.7333 -2.44352 -1.4202 36.9879 0.344926 -8.83202 0.682044 7.94136 -89.8375 10.9906 1.4331 0.186519 -0.679553 1.4399 0.12325 -23.2201 1.31077 0.608672 -3.20747 1.31075 0.608668 93.5955 -46.2177 -95.9487 28.3394 -5.46081 8.97101 -10.0846 -14.2791 -57.766 -15.7865 -0.502229 -1.67089 -90.6686 -46.7268 76.9664 -40.9662 15.217 18.9469 12.9446 25.2205 -37.79 9.72147 1.43136 9.92262 1.34466 -6.41728 5.52747 9.2004 -7.64259 -5.05893 
92.8676 100.17 182.801 84.0888 -35.651 89.2965 -173.197 5.00819 85.8623 -12.9645 5.9007 -3.03843 67.9715 9.3383 2.65378 34.7387 4.61812 4.2279 173.1 26.904 88.7094 -55.6058 -3.07799 -0.123495 64.5643 -2.75954 -1.56543 38.6091 0.297695 -8.89657 0.292987 7.86726 -90.112 11.1393 0.531159 -0.27503 -0.531568 0.518521 -0.298143 -23.0675 0.589261 -0.102672 -3.05491 0.589251 -0.102682 93.7896 -46.7284 -95.5447 29.2186 -5.32121 11.7213 -9.68282 -16.7639 -52.0483 -14.5494 -0.726496 0.153206 -91.2618 -46.4283 75.974 -35.2801 12.8463 11.6414 13.9115 16.3441 -46.3503 22.8202 3.0753 9.73368 0.50436 -5.62775 4.65676 9.35075 -6.5424 -3.51485 
96.3049 100.585 186.562 83.4838 -34.9121 89.1301 -172.838 1.38978 87.28 -10.2638 6.92962 -2.89943 66.7137 8.01894 1.89231 36.4167 6.05159 6.10914 173.3 29.4627 88.8234 -44.3102 -3.92401 0.378887 65.5744 -2.88784 -1.60451 40.0658 0.22441 -9.93844 0.0107733 7.7759 -90.1641 11.3218 -0.05497 -0.321074 -0.349201 -0.0690524 -0.318346 -22.884 0.0440691 -0.322752 -2.8714 0.0440586 -0.322754 94.2794 -47.7257 -94.5967 29.0584 -5.2756 13.5283 -8.95659 -20.0811 -46.5302 -10.7021 -0.778942 1.55798 -91.274 -45.8477 75.8071 -29.6513 7.68793 4.85724 16.6818 9.97912 -56.6019 20.2857 2.26782 7.32772 -0.105803 -5.03602 3.15868 9.72762 -5.63108 -2.32843 
99.6828 100.179 190.561 83.774 -34.2837 89.0295 -172.238 -1.22509 88.2076 -11.562 8.98256 -2.71243 67.7417 7.66503 1.34797 36.8676 6.49434 9.48725 173.222 29.4631 88.7061 -29.5268 -3.6984 1.00045 66.4987 -3.13266 -1.71964 41.4529 0.154939 -10.4018 -0.248515 7.7365 -90.1266 11.4004 -0.553599 -0.196182 -0.270475 -0.561681 -0.171633 -22.8062 -0.469035 -0.353498 -2.79359 -0.469033 -0.353496 94.471 -49.065 -94.0814 28.5399 -4.76291 15.6147 -8.94311 -23.8157 -41.1747 -7.42082 -0.738751 2.22867 -91.1724 -45.1124 75.7801 -23.7636 3.96349 -2.75777 17.3312 6.69645 -62.977 19.466 1.71488 4.98145 -0.262766 -4.43707 1.8071 9.61218 -4.80447 -1.72017 
103.122 98.9859 194.802 84.1774 -33.5827 87.8443 -171.888 -3.55451 88.6156 -13.9464 11.524 -2.66835 68.6546 8.00515 2.8205 38.4072 7.92248 9.67904 173.042 28.2139 87.7802 -12.7165 -4.16177 1.37841 65.5121 -2.99917 -1.67726 47.5975 -0.246895 -11.8393 -0.510785 7.70572 -89.9747 11.4635 -1.00427 0.152595 -0.207084 -0.996593 0.196648 -22.7453 -1.00369 -0.15632 -2.73267 -1.0037 -0.156321 94.1937 -49.7311 -94.4107 28.4154 -3.06027 18.9867 -10.6074 -26.6941 -38.7704 -3.01908 -0.640127 3.0558 -92.6496 -42.9396 72.8256 -18.5233 -0.122409 -8.41536 16.4664 4.04565 -67.9457 19.23 1.90082 6.03993 -0.105839 -3.73898 0.711985 9.31472 -3.87535 -0.797387 
106.719 97.3862 199.19 85.705 -32.8776 87.746 -170.736 -6.61864 90.0652 -16.5452 15.2615 -2.87815 66.4474 6.34126 4.45998 43.6366 12.6092 8.58751 173.372 27.9547 87.4212 -4.51411 -1.88999 1.11747 70.0356 -4.24444 -2.19394 42.7023 0.345613 -6.36691 -0.792689 7.8294 -89.8376 11.2187 -1.50209 0.470899 -0.451492 -1.47991 0.536566 -22.9936 -1.57415 -0.00241853 -2.98094 -1.57415 -0.0024175 95.3424 -50.6749 -92.5013 27.1642 -2.25623 20.9044 -12.9416 -30.0826 -38.5093 1.60386 -0.507564 3.98736 -92.3526 -40.0806 72.4388 -15.5077 -5.02169 -12.7615 18.0663 3.63576 -71.47 19.1585 1.59836 4.49691 1.10076 -3.07347 -0.788155 8.21498 -2.89575 0.370999 
110.627 95.6949 203.526 87.0406 -31.2826 88.1318 -169.872 -8.65829 92.0002 -20.7943 19.1647 -2.27438 65.38 5.38781 4.41709 45.339 14.5995 11.6366 173.961 28.8346 86.7956 -4.60815 -3.21201 0.205214 71.031 -4.73212 -2.40566 44.982 0.243663 -7.50096 -1.24364 7.87028 -89.8496 11.1407 -2.40544 0.534205 -0.528237 -2.3796 0.63961 -23.081 -2.45472 -0.213858 -3.06833 -2.45473 -0.21386 95.1939 -50.0986 -92.8074 26.5472 -1.88404 23.6345 -14.3408 -31.0349 -39.0268 6.00824 -0.316153 4.77046 -91.1561 -37.8117 73.7581 -12.6711 -7.68959 -16.1309 17.4848 3.16048 -72.3031 18.2182 1.57835 4.78213 0.647314 -2.04251 -0.590606 8.53761 -1.84781 0.848808 
115.294 94.2067 208.333 87.7655 -30.3048 88.8856 -169.684 -10.9044 93.9427 -24.054 20.7305 -0.633211 62.483 3.45177 4.7659 47.2968 17.0898 14.9907 174.435 29.9606 87.0301 -11.7154 -7.3078 -0.240166 66.3421 -3.33483 -1.79878 49.7394 -0.412248 -12.0314 -1.6953 7.91428 -90.0776 11.0525 -3.41043 0.173332 -0.614005 -3.39951 0.323431 -23.1835 -3.30467 -0.860807 -3.1709 -3.3047 -0.86081 95.2549 -48.2155 -92.974 25.5992 -1.91778 25.0754 -15.2296 -31.5246 -40.1196 6.94555 -0.277675 4.80218 -90.6035 -37.1675 74.5119 -10.7776 -9.84541 -15.3002 15.5679 1.95106 -74.088 18.9166 1.03147 1.63683 2.69313 -0.378658 1.30353 6.64017 -0.41016 1.43456 
120.471 93.5574 213.494 87.9333 -31.0539 91.0795 -168.841 -12.052 97.2967 -27.3392 20.444 0.94623 54.8563 -2.38086 1.00491 50.958 22.0607 19.907 174.515 31.8673 89.3877 -23.0205 -6.01154 0.457228 63.8476 -2.16559 -1.17977 48.5588 -0.0194142 -9.27502 -1.66505 7.94359 -90.399 10.9834 -3.49945 -0.460204 -0.682923 -3.5163 -0.305559 -23.2504 -3.19921 -1.49168 -3.23771 -3.1992 -1.49168 95.3649 -48.6621 -92.7375 24.0899 -2.04716 25.7823 -13.1737 -29.4084 -39.1817 4.40268 -0.332472 5.45071 -91.7705 -37.1377 72.4874 -8.344 -9.59663 -12.4663 13.5221 0.98701 -75.4907 19.9072 1.11922 1.76791 2.91335 0.182767 1.3525 6.45655 0.268643 2.77115 
125.313 93.2329 218.004 88.618 -32.8664 93.5686 -168.425 -9.6091 99.9369 -35.8689 17.4866 1.58109 43.8603 -9.53991 -3.69821 45.7639 17.4185 24.651 174.259 32.0092 92.1654 -32.1715 -5.21777 1.26507 66.5368 -3.11913 -1.67194 39.6796 0.419854 -4.68364 -1.46409 8.05978 -90.6895 10.7403 -3.23329 -1.0719 -0.926982 -3.27734 -0.928438 -23.4836 -2.76163 -1.99461 -3.47095 -2.76163 -1.9946 94.3827 -48.8892 -94.2476 23.9885 -1.36371 24.8846 -11.5269 -27.6386 -37.3544 2.29085 -0.410862 5.87628 -93.1861 -38.5929 70.5595 -7.45793 -9.12694 -8.76812 16.134 1.26983 -76.8443 16.6395 0.771771 0.77676 3.67787 0.765733 1.41628 5.08232 0.892121 3.90835 
